<svg xmlns="http://www.w3.org/2000/svg" width="1120" height="300" viewBox="0 0 1120 300" role="img" aria-label="Scholar MCP"><rect width="100%" height="100%" fill="#F1F3EF"/><g transform="translate(560 0) scale(0.88 1) translate(-560 0)"><path d="M104 66 H254 Q278 66 278 90 V232 H128 Q104 232 104 208 Z" fill="none" stroke="#232820" stroke-width="5"/><path d="M128 91 H294 Q318 91 318 115 V258 H152 Q128 258 128 234 Z" fill="#F1F3EF" stroke="#CCD2CB" stroke-width="3"/><path d="M174 176 C195 132 225 121 260 142 C280 154 291 181 318 186" fill="none" stroke="#3D5946" stroke-width="4"/><line x1="188" y1="211" x2="255" y2="164" stroke="#6A3A3D" stroke-width="3"/><line x1="255" y1="164" x2="292" y2="218" stroke="#8C714C" stroke-width="3"/><circle cx="174" cy="176" r="10" fill="#3D5946" stroke="#F1F3EF" stroke-width="3"/><circle cx="188" cy="211" r="8" fill="#6A3A3D" stroke="#F1F3EF" stroke-width="3"/><circle cx="255" cy="164" r="12" fill="#232820" stroke="#F1F3EF" stroke-width="3"/><circle cx="292" cy="218" r="9" fill="#8C714C" stroke="#F1F3EF" stroke-width="3"/><text x="374.0" y="150.0" font-family="Inter, IBM Plex Sans, ui-sans-serif, system-ui, sans-serif" font-size="72" font-weight="720" fill="#232820" text-anchor="start">SCHOLAR</text><text x="781.0" y="150.0" font-family="IBM Plex Mono, SFMono-Regular, Consolas, monospace" font-size="72" font-weight="620" fill="#3D5946" text-anchor="start">MCP</text><text x="378.0" y="197.0" font-family="IBM Plex Mono, SFMono-Regular, Consolas, monospace" font-size="16" font-weight="600" fill="#687168" text-anchor="start">MULTI-SOURCE ACADEMIC RETRIEVAL</text><line x1="378" y1="218" x2="1005" y2="218" stroke="#CCD2CB" stroke-width="2"/><text x="1005.0" y="248.0" font-family="IBM Plex Mono, SFMono-Regular, Consolas, monospace" font-size="13" font-weight="500" fill="#687168" text-anchor="end">SEARCH · FOLLOW · READ · REMEMBER</text></g></svg>